# xmcd
#
# Track frame offsets:
#	150
#	10219
#	22946
#	35590
#	50412
#	61220
#	76132
#	88031
#	101679
#	115885
#	131434
#	144576
#	158657
#	173316
#	189735
#	204915
#
# Disc length: 2945 seconds
#
# Revision: 0
# Processed by: cddbd v1.5.2PL0 Copyright (c) Steve Scherf et al.
# Submitted via: EasyCDDAExtractor 16.0.6.1
#
DISCID=c20b7f10
DTITLE=Διονυσίου Στράτος - Τραγούδια 45 στροφές-Διονυσίου Στράτος 2
DYEAR=1997
DGENRE=Λαϊκή
TTITLE0=Η παράγκα [Ν. Δαλέζιου]
TTITLE1=Έλα φίλα με [Ν. Καρανικόλα-Γ. Λευκαδίτη]
TTITLE2=Καταδίκη πιο μεγάλη [Χρ. Κολοκοτρώνη]
TTITLE3=Το χαμένο παιδί [Γερ. Κλουβάτου]
TTITLE4=Μπάμπη [Μπ. Μαρκάκη]
TTITLE5=Κατάρα νά 'χει η άσπλαχνη [Στρ. Ατταλίδη]
TTITLE6=Στο από κάτω το σκαλί [Ν. Καρανικόλα]
TTITLE7=Θα φύγω κι ας πονώ [Γιάννη Καραμπεσίνη]
TTITLE8=Ξαναγύρνα στο παιδί σου [Γιάννη Καραμπεσίνη]
TTITLE9=Η αγάπη μας πεθαίνει [Στρ. Ατταλίδη]
TTITLE10=Το καράβι που σαλπάρει [Β. Τσιτσάνη]
TTITLE11=Η μοδιστρούλα [Π. Πετσά]
TTITLE12=Πες μου φίλε τον καϋμό σου [Β. Τσιτσάνη]
TTITLE13=Δρόμο παίρνεις [Στ. Μακρυδάκη]
TTITLE14=Το μεροδούλι της τιμής [Ν. Δαλέζιου]
TTITLE15=Πάλι εδώ θα 'ρθείς [Α. Καλδάρα]
EXTD=
EXTT0=
EXTT1=
EXTT2=
EXTT3=
EXTT4=
EXTT5=
EXTT6=
EXTT7=
EXTT8=
EXTT9=
EXTT10=
EXTT11=
EXTT12=
EXTT13=
EXTT14=
EXTT15=
PLAYORDER=
